<?xml version="1.0" encoding="utf-8"?>
<!-- Generator: Adobe Illustrator 17.0.0, SVG Export Plug-In . SVG Version: 6.00 Build 0)  -->
<!DOCTYPE svg PUBLIC "-//W3C//DTD SVG 1.1//EN" "http://www.w3.org/Graphics/SVG/1.1/DTD/svg11.dtd">
<svg version="1.1" id="Laag_1" xmlns="http://www.w3.org/2000/svg" xmlns:xlink="http://www.w3.org/1999/xlink" x="0px" y="0px"
	 width="128px" height="128px" viewBox="0 0 128 128" enable-background="new 0 0 128 128" xml:space="preserve">
<g>
	<path fill="#26649F" d="M73.404,87.307c-3.539,4.399-11.905,10.727-15.661,10.727c-2.145,0-3.539-1.715-1.394-10.513L63,60.062
		c0.644-2.359,0.644-3.43-0.107-3.43c-0.86,0-4.076,1.822-7.295,4.613l-1.287-2.47c5.9-5.791,13.409-10.188,16.304-10.188
		c2.359,0,2.252,3.432,1.071,8.473l-7.399,29.606c-0.644,2.573-0.43,3.43,0.214,3.43c1.287,0,5.041-2.789,7.509-5.041L73.404,87.307
		z M76.193,32.819c0,3.323-2.468,6.221-5.684,6.221c-2.575,0-4.399-1.931-4.506-4.72c0-2.682,2.145-6.328,5.9-6.328
		C74.692,27.992,76.086,30.244,76.193,32.819z"/>
</g>
</svg>
