<?xml version="1.0" encoding="utf-8"?>
<!-- Generator: Adobe Illustrator 17.0.0, SVG Export Plug-In . SVG Version: 6.00 Build 0)  -->
<!DOCTYPE svg PUBLIC "-//W3C//DTD SVG 1.1//EN" "http://www.w3.org/Graphics/SVG/1.1/DTD/svg11.dtd">
<svg version="1.1" id="Laag_1" xmlns="http://www.w3.org/2000/svg" xmlns:xlink="http://www.w3.org/1999/xlink" x="0px" y="0px"
	 width="128px" height="128px" viewBox="0 0 128 128" enable-background="new 0 0 128 128" xml:space="preserve">
<path fill="#26638F" d="M64,28.021c-19.172,0-34.857,15.685-34.857,34.857S44.828,97.735,64,97.735s34.857-15.687,34.857-34.858
	S83.172,28.021,64,28.021z M64,91.924c-15.976,0-29.048-13.071-29.048-29.048S48.024,33.829,64,33.829S93.048,46.9,93.048,62.877
	S79.976,91.924,64,91.924z M46.572,80.306l22.947-11.91l11.91-22.947l-22.947,11.91L46.572,80.306z M64,59.682
	c1.742,0,3.195,1.453,3.195,3.195S65.742,66.072,64,66.072s-3.195-1.453-3.195-3.195S62.258,59.682,64,59.682z"/>
</svg>
